<svg id="Calque_1" data-name="Calque 1" xmlns="http://www.w3.org/2000/svg" viewBox="0 0 211.53 61.91"><defs><style>.cls-1{fill:#fff;}</style></defs><path class="cls-1" d="M202.89,428.14a3.06,3.06,0,0,1-1,2.34,3.37,3.37,0,0,1-2.36.94,3.2,3.2,0,0,1-2.42-.94,3.24,3.24,0,0,1-.92-2.34V397.08a3.16,3.16,0,0,1,1-2.34,3.4,3.4,0,0,1,2.47-.94,3.24,3.24,0,0,1,2.29.94,3.11,3.11,0,0,1,1,2.34Z" transform="translate(-196.17 -393.26)"/><path class="cls-1" d="M214.34,431.42a3.32,3.32,0,0,1-2.45-.94,3.17,3.17,0,0,1-.94-2.34V397.08a3.21,3.21,0,0,1,3.28-3.28H231.7a3.29,3.29,0,0,1,2.34.88A3.05,3.05,0,0,1,235,397a2.84,2.84,0,0,1-.94,2.09,3.24,3.24,0,0,1-2.34.92H217.19l.48-.65v10.81l-.38-.7h12a3.29,3.29,0,0,1,2.34.88,3.05,3.05,0,0,1,.94,2.29,2.89,2.89,0,0,1-.94,2.1,3.23,3.23,0,0,1-2.34.91H217.19l.48-.49v13a3.11,3.11,0,0,1-1,2.34A3.3,3.3,0,0,1,214.34,431.42Z" transform="translate(-196.17 -393.26)"/><path class="cls-1" d="M245,431.42a4.18,4.18,0,0,1-2.69-.94,2.88,2.88,0,0,1-1.18-2.34V397.08a3.17,3.17,0,0,1,.94-2.34,3.14,3.14,0,0,1,2.33-.94h15.48a9.9,9.9,0,0,1,5.24,1.48,11.14,11.14,0,0,1,4,4.08,11.72,11.72,0,0,1,1.51,6,10.07,10.07,0,0,1-.83,4,12.38,12.38,0,0,1-2.26,3.49,10.54,10.54,0,0,1-3.2,2.42l.05-1.23a8.92,8.92,0,0,1,2.5,1.9,9.08,9.08,0,0,1,1.56,2.37,7.94,7.94,0,0,1,.67,2.71c.15.9.24,1.69.3,2.37a7,7,0,0,0,.32,1.72,1.93,1.93,0,0,0,.94,1.07,3,3,0,0,1,1.48,2,2.48,2.48,0,0,1-.62,2.33,2.53,2.53,0,0,1-1.5.89,4.34,4.34,0,0,1-1.83,0,5.05,5.05,0,0,1-1.5-.51,7.58,7.58,0,0,1-1.83-1.58,7.93,7.93,0,0,1-1.48-2.83,15.22,15.22,0,0,1-.56-4.56,4.33,4.33,0,0,0-.33-1.7,4,4,0,0,0-.91-1.34,3.87,3.87,0,0,0-1.5-.86,7,7,0,0,0-2.15-.3H247.07l.8-1.23v11.66a3.65,3.65,0,0,1-.75,2.34A2.52,2.52,0,0,1,245,431.42Zm2.09-19.24h12.52a2.73,2.73,0,0,0,1.89-.89,6.72,6.72,0,0,0,1.5-2.42,9.13,9.13,0,0,0,.59-3.36,6.17,6.17,0,0,0-1.26-3.95,3.54,3.54,0,0,0-2.72-1.58H247.23l.64-1.72v15.21Z" transform="translate(-196.17 -393.26)"/><path class="cls-1" d="M284.8,428.14a3.06,3.06,0,0,1-1,2.34,3.37,3.37,0,0,1-2.37.94,3.17,3.17,0,0,1-3.33-3.28V397.08a3.12,3.12,0,0,1,1-2.34,3.38,3.38,0,0,1,2.47-.94,3.2,3.2,0,0,1,2.28.94,3.08,3.08,0,0,1,1,2.34Z" transform="translate(-196.17 -393.26)"/><path class="cls-1" d="M327.47,412.61a20.87,20.87,0,0,1-1.34,7.52,19.33,19.33,0,0,1-3.79,6.16,17.86,17.86,0,0,1-26.23,0,19.33,19.33,0,0,1-3.79-6.16,21.77,21.77,0,0,1,0-15,19.22,19.22,0,0,1,3.79-6.16,17.9,17.9,0,0,1,26.23,0,19.22,19.22,0,0,1,3.79,6.16A20.83,20.83,0,0,1,327.47,412.61Zm-7,0a14.47,14.47,0,0,0-1.45-6.53,11.9,11.9,0,0,0-4-4.65,10.83,10.83,0,0,0-11.71,0,11.72,11.72,0,0,0-3.95,4.62,15.69,15.69,0,0,0,0,13.09,11.67,11.67,0,0,0,3.95,4.65,10.83,10.83,0,0,0,11.71,0,11.9,11.9,0,0,0,4-4.65A14.47,14.47,0,0,0,320.48,412.61Zm7.2,20.31a3.28,3.28,0,0,1,3.07,3.12,3.3,3.3,0,0,1-1.11,2.34,10.63,10.63,0,0,1-2.82,2,18.06,18.06,0,0,1-3.57,1.34,13.17,13.17,0,0,1-3.36.49,18.58,18.58,0,0,1-5.32-.62,15,15,0,0,1-3.28-1.4c-.86-.52-1.66-1-2.42-1.39a5.52,5.52,0,0,0-2.74-.62,3.27,3.27,0,0,0-1.64.35c-.41.23-.86.46-1.34.69a4.64,4.64,0,0,1-2,.35,2.91,2.91,0,0,1-2.25-1,3.24,3.24,0,0,1-.92-2.2,2.73,2.73,0,0,1,1.88-2.8L311,429.38l4.84,1.18-10.43,3.87,3.06-1.78a8.86,8.86,0,0,1,3.31.57,24.92,24.92,0,0,1,2.71,1.26,25.86,25.86,0,0,0,2.66,1.26,8.16,8.16,0,0,0,3.15.57,5.59,5.59,0,0,0,2.44-.48,9.48,9.48,0,0,0,1.75-1.08l1.64-1.26A2.5,2.5,0,0,1,327.68,432.92Z" transform="translate(-196.17 -393.26)"/><path class="cls-1" d="M340.15,428.14a3.06,3.06,0,0,1-1,2.34,3.37,3.37,0,0,1-2.36.94,3.2,3.2,0,0,1-2.42-.94,3.24,3.24,0,0,1-.92-2.34V397.08a3.16,3.16,0,0,1,1-2.34,3.4,3.4,0,0,1,2.47-.94,3.24,3.24,0,0,1,2.29.94,3.11,3.11,0,0,1,1,2.34Z" transform="translate(-196.17 -393.26)"/><path class="cls-1" d="M372.18,393.64a3.31,3.31,0,0,1,3.23,3.33,3.87,3.87,0,0,1-.14,1,3.43,3.43,0,0,1-.45,1l-12.2,17.46,1-3.7v15.42a3.17,3.17,0,0,1-.94,2.34,3,3,0,0,1-2.17.94,3.11,3.11,0,0,1-2.29-.94,3.21,3.21,0,0,1-.94-2.34v-15l.43,1.72-11.61-15.43a4.45,4.45,0,0,1-.75-1.34,3.87,3.87,0,0,1-.21-1.18,2.89,2.89,0,0,1,1.13-2.37,3.63,3.63,0,0,1,2.31-.91,3.25,3.25,0,0,1,2.63,1.5l10.32,14.24-1.51-.21,9.52-13.92A3.24,3.24,0,0,1,372.18,393.64Z" transform="translate(-196.17 -393.26)"/><path class="cls-1" d="M391.74,402.24l-11.6,27.3a3.33,3.33,0,0,1-1.16,1.58,2.8,2.8,0,0,1-1.69.57,2.68,2.68,0,0,1-2.15-.81,2.91,2.91,0,0,1-.7-2,3.48,3.48,0,0,1,.16-1L388,395.73a3.53,3.53,0,0,1,1.32-1.66,2.8,2.8,0,0,1,1.91-.49,3.23,3.23,0,0,1,3,2.15l13.22,31.5a3.55,3.55,0,0,1,.27,1.29,3.08,3.08,0,0,1-3,3.17,2.84,2.84,0,0,1-1.75-.59,3.87,3.87,0,0,1-1.21-1.62l-11.55-26.92ZM381.8,423l3-6.18h14.51l1,6.18Z" transform="translate(-196.17 -393.26)"/><path class="cls-1" d="M334.49,438.92a1.12,1.12,0,0,1-.75-.28,1,1,0,0,1-.31-.72.92.92,0,0,1,.31-.71,1.11,1.11,0,0,1,.75-.27h11.93a1.12,1.12,0,0,1,.75.28,1,1,0,0,1,.31.72.92.92,0,0,1-.31.71,1.11,1.11,0,0,1-.75.27Zm5.95,16a1,1,0,0,1-.78-.31,1,1,0,0,1-.3-.74V438h2.19v15.84a1,1,0,0,1-.31.74A1.07,1.07,0,0,1,340.44,454.91Z" transform="translate(-196.17 -393.26)"/><path class="cls-1" d="M363.26,436.92a1,1,0,0,1,.75.3,1.12,1.12,0,0,1,.28.75v10.19a7,7,0,0,1-.91,3.54,6.8,6.8,0,0,1-2.46,2.48,6.7,6.7,0,0,1-3.51.91,6.79,6.79,0,0,1-6.88-6.93V438a1,1,0,0,1,.31-.75,1.08,1.08,0,0,1,.79-.3,1,1,0,0,1,.73.3,1,1,0,0,1,.32.75v10.19a4.86,4.86,0,0,0,.65,2.51,4.7,4.7,0,0,0,4.08,2.37,4.85,4.85,0,0,0,2.44-.63,4.92,4.92,0,0,0,1.77-1.74,4.77,4.77,0,0,0,.66-2.51V438a1.11,1.11,0,0,1,.27-.75A.91.91,0,0,1,363.26,436.92Z" transform="translate(-196.17 -393.26)"/><path class="cls-1" d="M382.07,436.94a.93.93,0,0,1,.7.28,1,1,0,0,1,.25.7v15.91a1,1,0,0,1-.3.78,1.08,1.08,0,0,1-.77.3,1.19,1.19,0,0,1-.44-.09,1,1,0,0,1-.36-.24l-11-14.53.52-.28V454a.93.93,0,0,1-.27.68,1,1,0,0,1-.71.27.9.9,0,0,1-.69-.27,1,1,0,0,1-.26-.68V438a1,1,0,0,1,.31-.77,1.09,1.09,0,0,1,.72-.28,1.35,1.35,0,0,1,.47.09.72.72,0,0,1,.38.3l10.8,14.29-.31.41V437.92a1,1,0,0,1,.27-.7A.94.94,0,0,1,382.07,436.94Z" transform="translate(-196.17 -393.26)"/><path class="cls-1" d="M389.65,453.86a1,1,0,0,1-.33.74,1,1,0,0,1-.75.31,1,1,0,0,1-.79-.31,1,1,0,0,1-.29-.74V438a1,1,0,0,1,.31-.74,1.09,1.09,0,0,1,.79-.31,1.06,1.06,0,0,1,.75.31,1,1,0,0,1,.31.74Z" transform="translate(-196.17 -393.26)"/><path class="cls-1" d="M399.4,455.17a9,9,0,0,1-3.34-.57,8.78,8.78,0,0,1-2.77-1.79,1.45,1.45,0,0,1-.3-.39,1.17,1.17,0,0,1-.11-.49,1.06,1.06,0,0,1,.3-.73.94.94,0,0,1,.73-.32.87.87,0,0,1,.64.28,7.2,7.2,0,0,0,2.17,1.49,6.46,6.46,0,0,0,2.63.51,5.65,5.65,0,0,0,2-.35,3.6,3.6,0,0,0,1.43-1,2.21,2.21,0,0,0,.54-1.48,2.49,2.49,0,0,0-.58-1.7,4.28,4.28,0,0,0-1.59-1.1,15.07,15.07,0,0,0-2.35-.77,16.16,16.16,0,0,1-2.16-.68,6.53,6.53,0,0,1-1.72-1,4.06,4.06,0,0,1-1.13-1.47,4.73,4.73,0,0,1-.4-2,4.34,4.34,0,0,1,.77-2.55,5.09,5.09,0,0,1,2.14-1.71,7.63,7.63,0,0,1,3.15-.61,8.57,8.57,0,0,1,3,.51,5.78,5.78,0,0,1,2.25,1.41,1.39,1.39,0,0,1,.51,1,1,1,0,0,1-.32.68,1,1,0,0,1-.73.32.84.84,0,0,1-.52-.18,4.12,4.12,0,0,0-1.11-.87,6.62,6.62,0,0,0-1.47-.62,5.63,5.63,0,0,0-1.57-.23,5.78,5.78,0,0,0-2.08.34,3.34,3.34,0,0,0-1.4,1,2.24,2.24,0,0,0-.5,1.49,2.33,2.33,0,0,0,.56,1.6,4.2,4.2,0,0,0,1.52,1,16.14,16.14,0,0,0,2.1.7,20.56,20.56,0,0,1,2.32.71,6.7,6.7,0,0,1,1.84,1A3.91,3.91,0,0,1,405,448a5.17,5.17,0,0,1,.43,2.24,4.2,4.2,0,0,1-.8,2.52,5.31,5.31,0,0,1-2.17,1.74A7.15,7.15,0,0,1,399.4,455.17Z" transform="translate(-196.17 -393.26)"/></svg>